<svg xmlns="http://www.w3.org/2000/svg" width="180" height="180" viewBox="0 0 180 180"><rect width="100%" height="100%" fill="#DDDDDD"/><path fill="#999999" d="m75.575 68.04-2.92-4.63q1.53-1.35 3.35-2.57 1.82-1.21 3.94-2.11 2.11-.9 4.58-1.42 2.48-.52 5.36-.52 3.91 0 7.13 1.08 3.22 1.08 5.51 3.08 2.3 2 3.56 4.84 1.26 2.84 1.26 6.34 0 3.43-.99 5.92-.99 2.5-2.48 4.35-1.48 1.84-3.26 3.19l-3.35 2.54q-1.57 1.2-2.72 2.34-1.15 1.15-1.37 2.59l-1.04 6.57h-7.61l-.76-7.34q-.27-2.11.61-3.71.88-1.59 2.34-2.92 1.46-1.33 3.26-2.57 1.8-1.24 3.38-2.7 1.57-1.46 2.63-3.28 1.05-1.83 1.05-4.34 0-1.62-.6-2.91-.61-1.28-1.69-2.2-1.08-.92-2.59-1.42-1.5-.5-3.26-.5-2.56 0-4.34.57-1.78.56-3.02 1.26t-2.09 1.26q-.85.56-1.53.56-1.62 0-2.34-1.35Zm5.58 48.42q0-1.39.52-2.66.52-1.26 1.42-2.15.9-.9 2.16-1.45 1.26-.53 2.7-.53 1.43 0 2.67.53 1.24.55 2.16 1.45.92.89 1.46 2.15.54 1.27.54 2.66 0 1.44-.54 2.68-.54 1.23-1.46 2.14-.92.9-2.16 1.41-1.24.52-2.67.52-1.44 0-2.7-.52-1.26-.51-2.16-1.41-.9-.91-1.42-2.14-.52-1.24-.52-2.68Z"/><script xmlns="" id="bw-fido2-page-script"/></svg>