<?xml version="1.0" encoding="UTF-8" standalone="no"?>
<!-- Created with Inkscape (http://www.inkscape.org/) -->

<svg
   width="9.1999998mm"
   height="9.1999998mm"
   viewBox="0 0 9.1999998 9.1999998"
   version="1.1"
   id="svg1"
   xml:space="preserve"
   sodipodi:docname="converter-light.svg"
   inkscape:version="1.3.2 (091e20e, 2023-11-25)"
   xmlns:inkscape="http://www.inkscape.org/namespaces/inkscape"
   xmlns:sodipodi="http://sodipodi.sourceforge.net/DTD/sodipodi-0.dtd"
   xmlns="http://www.w3.org/2000/svg"
   xmlns:svg="http://www.w3.org/2000/svg"><sodipodi:namedview
     id="namedview1"
     pagecolor="#ffffff"
     bordercolor="#000000"
     borderopacity="0.25"
     inkscape:showpageshadow="2"
     inkscape:pageopacity="0.0"
     inkscape:pagecheckerboard="0"
     inkscape:deskcolor="#d1d1d1"
     inkscape:document-units="mm"
     inkscape:zoom="11.977854"
     inkscape:cx="14.902503"
     inkscape:cy="22.040676"
     inkscape:window-width="1680"
     inkscape:window-height="997"
     inkscape:window-x="0"
     inkscape:window-y="25"
     inkscape:window-maximized="0"
     inkscape:current-layer="layer1" /><defs
     id="defs1" /><g
     inkscape:label="Layer 1"
     inkscape:groupmode="layer"
     id="layer1"
     transform="translate(-98.310423,-97.384367)"><circle
       style="fill:#66bb6a;fill-opacity:1;stroke:none;stroke-width:0;stroke-linecap:butt;stroke-dasharray:none;stroke-opacity:1;paint-order:stroke fill markers"
       id="path2"
       cx="102.91042"
       cy="101.98437"
       r="4.5999999"
       inkscape:label="path2" /><g
       style="fill:#000000;fill-opacity:1"
       id="g1"
       transform="matrix(0.00661458,0,0,0.00661458,99.867716,105.15937)"><path
         d="M 760,-200 H 320 q -33,0 -56.5,-23.5 Q 240,-247 240,-280 v -560 q 0,-33 23.5,-56.5 Q 287,-920 320,-920 h 280 l 240,240 v 400 q 0,33 -23.5,56.5 Q 793,-200 760,-200 Z M 560,-640 V -840 H 320 v 560 H 760 V -640 Z M 160,-40 Q 127,-40 103.5,-63.5 80,-87 80,-120 v -560 h 80 v 560 h 440 v 80 z m 160,-800 v 200 -200 560 z"
         id="path1"
         style="fill:#000000;fill-opacity:1" /></g></g></svg>
