<?xml version="1.0" encoding="UTF-8" standalone="no"?>
<!-- Created with Inkscape (http://www.inkscape.org/) -->

<svg
   width="9.1999998mm"
   height="9.1999998mm"
   viewBox="0 0 9.1999998 9.1999998"
   version="1.1"
   id="svg1"
   xml:space="preserve"
   sodipodi:docname="mariah-touch.svg"
   inkscape:version="1.3.2 (091e20e, 2023-11-25)"
   xmlns:inkscape="http://www.inkscape.org/namespaces/inkscape"
   xmlns:sodipodi="http://sodipodi.sourceforge.net/DTD/sodipodi-0.dtd"
   xmlns="http://www.w3.org/2000/svg"
   xmlns:svg="http://www.w3.org/2000/svg"><sodipodi:namedview
     id="namedview1"
     pagecolor="#ffffff"
     bordercolor="#000000"
     borderopacity="0.25"
     inkscape:showpageshadow="2"
     inkscape:pageopacity="0.0"
     inkscape:pagecheckerboard="0"
     inkscape:deskcolor="#d1d1d1"
     inkscape:document-units="mm"
     inkscape:zoom="13.017425"
     inkscape:cx="17.476575"
     inkscape:cy="22.738752"
     inkscape:window-width="1680"
     inkscape:window-height="997"
     inkscape:window-x="0"
     inkscape:window-y="25"
     inkscape:window-maximized="0"
     inkscape:current-layer="layer1" /><defs
     id="defs1" /><g
     inkscape:label="Layer 1"
     inkscape:groupmode="layer"
     id="layer1"
     transform="translate(-98.310423,-97.384367)"><rect
       style="fill:#e57373;fill-opacity:1;stroke-width:0.263944;paint-order:stroke fill markers"
       id="rect1"
       width="9.1995707"
       height="9.2000866"
       x="98.310425"
       y="97.384369" /><g
       style="fill:#000000;fill-opacity:1"
       id="g1"
       transform="matrix(0.00661458,0,0,0.00661458,99.735425,105.15937)"><path
         d="m 200,-80 q -33,0 -56.5,-23.5 Q 120,-127 120,-160 v -560 q 0,-33 23.5,-56.5 Q 167,-800 200,-800 h 40 v -80 h 80 v 80 h 320 v -80 h 80 v 80 h 40 q 33,0 56.5,23.5 23.5,23.5 23.5,56.5 v 560 q 0,33 -23.5,56.5 Q 793,-80 760,-80 Z m 0,-80 H 760 V -560 H 200 Z m 0,-480 h 560 v -80 H 200 Z m 0,0 v -80 z m 80,240 v -80 h 400 v 80 z m 0,160 v -80 h 280 v 80 z"
         id="path1"
         style="fill:#000000;fill-opacity:1" /></g></g></svg>
