<?xml version="1.0" encoding="UTF-8" standalone="no"?>
<!-- Created with Inkscape (http://www.inkscape.org/) -->

<svg
   width="9.1999998mm"
   height="9.1999998mm"
   viewBox="0 0 9.1999998 9.1999998"
   version="1.1"
   id="svg1"
   xml:space="preserve"
   sodipodi:docname="sites-touch.svg"
   inkscape:version="1.3.2 (091e20e, 2023-11-25)"
   xmlns:inkscape="http://www.inkscape.org/namespaces/inkscape"
   xmlns:sodipodi="http://sodipodi.sourceforge.net/DTD/sodipodi-0.dtd"
   xmlns="http://www.w3.org/2000/svg"
   xmlns:svg="http://www.w3.org/2000/svg"><sodipodi:namedview
     id="namedview1"
     pagecolor="#ffffff"
     bordercolor="#000000"
     borderopacity="0.25"
     inkscape:showpageshadow="2"
     inkscape:pageopacity="0.0"
     inkscape:pagecheckerboard="0"
     inkscape:deskcolor="#d1d1d1"
     inkscape:document-units="mm"
     inkscape:zoom="15.978946"
     inkscape:cx="14.11232"
     inkscape:cy="19.025035"
     inkscape:window-width="1680"
     inkscape:window-height="997"
     inkscape:window-x="0"
     inkscape:window-y="25"
     inkscape:window-maximized="0"
     inkscape:current-layer="layer1" /><defs
     id="defs1" /><g
     inkscape:label="Layer 1"
     inkscape:groupmode="layer"
     id="layer1"
     transform="translate(-98.310423,-97.384367)"><rect
       style="fill:#64b5f6;fill-opacity:1;stroke:none;stroke-width:0.799999;stroke-linecap:butt;stroke-linejoin:round;stroke-miterlimit:4;stroke-dasharray:none;stroke-opacity:1;paint-order:stroke fill markers"
       id="rect2"
       width="9.1999998"
       height="9.1999998"
       x="98.310425"
       y="97.384369"
       inkscape:label="rect2" /><g
       style="fill:#000000;fill-opacity:1"
       id="g2"
       transform="matrix(0.00661458,0,0,0.00661458,99.735425,105.15937)"><path
         d="m 480,-80 q -82,0 -155,-31.5 -73,-31.5 -127.5,-86 Q 143,-252 111.5,-325 80,-398 80,-480 q 0,-83 31.5,-155.5 31.5,-72.5 86,-127 54.5,-54.5 127.5,-86 73,-31.5 155,-31.5 83,0 155.5,31.5 72.5,31.5 127,86 54.5,54.5 86,127 31.5,72.5 31.5,155.5 0,82 -31.5,155 -31.5,73 -86,127.5 -54.5,54.5 -127,86 Q 563,-80 480,-80 Z m 0,-82 q 26,-36 45,-75 19,-39 31,-83 H 404 q 12,44 31,83 19,39 45,75 z M 376,-178 Q 358,-211 344.5,-246.5 331,-282 322,-320 H 204 q 29,50 72.5,87 43.5,37 99.5,55 z m 208,0 q 56,-18 99.5,-55 43.5,-37 72.5,-87 H 638 q -9,38 -22.5,73.5 Q 602,-211 584,-178 Z M 170,-400 h 136 q -3,-20 -4.5,-39.5 -1.5,-19.5 -1.5,-40.5 0,-21 1.5,-40.5 Q 303,-540 306,-560 H 170 q -5,20 -7.5,39.5 -2.5,19.5 -2.5,40.5 0,21 2.5,40.5 2.5,19.5 7.5,39.5 z m 216,0 h 188 q 3,-20 4.5,-39.5 1.5,-19.5 1.5,-40.5 0,-21 -1.5,-40.5 Q 577,-540 574,-560 H 386 q -3,20 -4.5,39.5 -1.5,19.5 -1.5,40.5 0,21 1.5,40.5 1.5,19.5 4.5,39.5 z m 268,0 h 136 q 5,-20 7.5,-39.5 2.5,-19.5 2.5,-40.5 0,-21 -2.5,-40.5 Q 795,-540 790,-560 H 654 q 3,20 4.5,39.5 1.5,19.5 1.5,40.5 0,21 -1.5,40.5 -1.5,19.5 -4.5,39.5 z m -16,-240 h 118 q -29,-50 -72.5,-87 -43.5,-37 -99.5,-55 18,33 31.5,68.5 13.5,35.5 22.5,73.5 z m -234,0 h 152 q -12,-44 -31,-83 -19,-39 -45,-75 -26,36 -45,75 -19,39 -31,83 z m -200,0 h 118 q 9,-38 22.5,-73.5 13.5,-35.5 31.5,-68.5 -56,18 -99.5,55 -43.5,37 -72.5,87 z"
         id="path1-2"
         style="fill:#000000;fill-opacity:1" /></g></g></svg>
