<?xml version="1.0" encoding="UTF-8" standalone="no"?>
<!-- Created with Inkscape (http://www.inkscape.org/) -->

<svg
   width="9.1999998mm"
   height="9.1999998mm"
   viewBox="0 0 9.1999998 9.1999998"
   version="1.1"
   id="svg1"
   xml:space="preserve"
   sodipodi:docname="twenty-touch.svg"
   inkscape:version="1.3.2 (091e20e, 2023-11-25)"
   xmlns:inkscape="http://www.inkscape.org/namespaces/inkscape"
   xmlns:sodipodi="http://sodipodi.sourceforge.net/DTD/sodipodi-0.dtd"
   xmlns="http://www.w3.org/2000/svg"
   xmlns:svg="http://www.w3.org/2000/svg"><sodipodi:namedview
     id="namedview1"
     pagecolor="#ffffff"
     bordercolor="#000000"
     borderopacity="0.25"
     inkscape:showpageshadow="2"
     inkscape:pageopacity="0.0"
     inkscape:pagecheckerboard="0"
     inkscape:deskcolor="#d1d1d1"
     inkscape:document-units="mm"
     inkscape:zoom="7.1049399"
     inkscape:cx="8.6559494"
     inkscape:cy="22.097302"
     inkscape:window-width="1680"
     inkscape:window-height="997"
     inkscape:window-x="0"
     inkscape:window-y="25"
     inkscape:window-maximized="0"
     inkscape:current-layer="layer1" /><defs
     id="defs1" /><g
     inkscape:label="Layer 1"
     inkscape:groupmode="layer"
     id="layer1"
     transform="translate(-98.310423,-97.384367)"><rect
       style="fill:#fff176;fill-opacity:1;stroke:none;stroke-width:0.799999;stroke-linecap:butt;stroke-linejoin:round;stroke-miterlimit:4;stroke-dasharray:none;stroke-opacity:1;paint-order:stroke fill markers"
       id="rect2"
       width="9.1999998"
       height="9.1999998"
       x="98.310425"
       y="97.384369" /><g
       style="fill:#000000;fill-opacity:1"
       id="g1"
       transform="matrix(0.00661458,0,0,0.00661458,99.735417,105.29166)"
       inkscape:label="eye"><path
         d="m 480,-320 q 75,0 127.5,-52.5 Q 660,-425 660,-500 660,-575 607.5,-627.5 555,-680 480,-680 405,-680 352.5,-627.5 300,-575 300,-500 q 0,75 52.5,127.5 Q 405,-320 480,-320 Z m 0,-72 q -45,0 -76.5,-31.5 Q 372,-455 372,-500 q 0,-45 31.5,-76.5 31.5,-31.5 76.5,-31.5 45,0 76.5,31.5 31.5,31.5 31.5,76.5 0,45 -31.5,76.5 Q 525,-392 480,-392 Z m 0,192 Q 334,-200 214,-281.5 94,-363 40,-500 94,-637 214,-718.5 334,-800 480,-800 q 146,0 266,81.5 120,81.5 174,218.5 -54,137 -174,218.5 -120,81.5 -266,81.5 z m 0,-300 z m 0,220 q 113,0 207.5,-59.5 Q 782,-399 832,-500 782,-601 687.5,-660.5 593,-720 480,-720 367,-720 272.5,-660.5 178,-601 128,-500 178,-399 272.5,-339.5 367,-280 480,-280 Z"
         id="path1"
         style="fill:#000000;fill-opacity:1" /></g><g
       style="fill:#000000;fill-opacity:1;stroke:#fff176;stroke-width:115.471;stroke-linecap:butt;stroke-linejoin:round;stroke-miterlimit:4;stroke-dasharray:none;stroke-opacity:1;paint-order:stroke fill markers"
       id="g2"
       transform="matrix(0.00692813,0,0,0.00692813,99.816607,104.84448)"
       inkscape:label="plus"><path
         d="m 763.10482,-35.017942 h 120 v -99.999998 h 100 v -120 h -100 v -100 h -120 v 100 h -100 v 120 h 100 z"
         id="path1-9"
         style="fill:#000000;fill-opacity:1;stroke:#fff176;stroke-width:115.471;stroke-linecap:butt;stroke-linejoin:round;stroke-miterlimit:4;stroke-dasharray:none;stroke-opacity:1;paint-order:stroke fill markers"
         sodipodi:nodetypes="ccccccccccccc" /></g></g></svg>
